<?xml version="1.0" encoding="UTF-8"?>
<svg width="76px" height="76px" viewBox="0 0 76 76" version="1.1" xmlns="http://www.w3.org/2000/svg" xmlns:xlink="http://www.w3.org/1999/xlink">
    <!-- Generator: Sketch 52.2 (67145) - http://www.bohemiancoding.com/sketch -->
    <title>比较好</title>
    <desc>Created with Sketch.</desc>
    <defs>
        <path d="M37.4051034,0.315356322 C16.747954,0.315356322 0,17.0624368 0,37.7213333 C0,58.3793563 16.747954,75.1264368 37.4051034,75.1264368 C58.064,75.1264368 74.8110805,58.3793563 74.8110805,37.7213333 C74.8110805,17.0624368 58.064,0.315356322 37.4051034,0.315356322 Z" id="path-1"></path>
        <linearGradient x1="49.9996615%" y1="100%" x2="49.9996615%" y2="0.000677144759%" id="linearGradient-3">
            <stop stop-color="#FFF450" offset="0%"></stop>
            <stop stop-color="#FF9000" offset="100%"></stop>
        </linearGradient>
        <path d="M0.0297011494,12.450023 C0.0297011494,19.3144828 10.1149885,24.879954 22.5545287,24.879954 C34.9949425,24.879954 45.0784828,19.3144828 45.0784828,12.450023 C45.0784828,5.58381609 34.9949425,0.0183448276 22.5545287,0.0183448276 C10.1149885,0.0183448276 0.0297011494,5.58381609 0.0297011494,12.450023" id="path-4"></path>
        <linearGradient x1="50.0010514%" y1="100.001873%" x2="50.0010514%" y2="-0.00217146873%" id="linearGradient-6">
            <stop stop-color="#FFFFFF" offset="0%"></stop>
            <stop stop-color="#FFD61A" offset="100%"></stop>
        </linearGradient>
    </defs>
    <g id="Page-1" stroke="none" stroke-width="1" fill="none" fill-rule="evenodd">
        <g id="记录昨晚睡眠-/笑脸" transform="translate(-471.000000, -1458.000000)">
            <g id="比较好" transform="translate(471.000000, 1458.000000)">
                <g id="分组">
                    <g transform="translate(0.000000, 0.557683)">
                        <mask id="mask-2" fill="white">
                            <use xlink:href="#path-1"></use>
                        </mask>
                        <g id="Clip-2"></g>
                        <path d="M37.4051034,0.315356322 C16.747954,0.315356322 0,17.0624368 0,37.7213333 C0,58.3793563 16.747954,75.1264368 37.4051034,75.1264368 C58.064,75.1264368 74.8110805,58.3793563 74.8110805,37.7213333 C74.8110805,17.0624368 58.064,0.315356322 37.4051034,0.315356322 Z" id="Fill-1" fill="url(#linearGradient-3)" mask="url(#mask-2)"></path>
                    </g>
                    <g transform="translate(14.850575, 4.051936)">
                        <mask id="mask-5" fill="white">
                            <use xlink:href="#path-4"></use>
                        </mask>
                        <g id="Clip-4"></g>
                        <path d="M0.0297011494,12.450023 C0.0297011494,19.3144828 10.1149885,24.879954 22.5545287,24.879954 C34.9949425,24.879954 45.0784828,19.3144828 45.0784828,12.450023 C45.0784828,5.58381609 34.9949425,0.0183448276 22.5545287,0.0183448276 C10.1149885,0.0183448276 0.0297011494,5.58381609 0.0297011494,12.450023" id="Fill-3" fill="url(#linearGradient-6)" mask="url(#mask-5)"></path>
                    </g>
                    <g transform="translate(12.229885, 6.672625)">
                        <path d="M3.23978391,9.82872184 C3.28433563,10.4873885 3.46865747,10.9861931 3.61366897,11.2980552 C3.80497931,11.710377 4.24176092,12.6477103 5.25422069,13.0425609 C5.7739908,13.2461011 6.25532414,13.230377 6.54971494,13.1945609 C6.14612874,13.4688598 5.7407954,13.7457793 5.33546207,14.0209517 C5.33546207,14.0209517 2.74272644,12.200446 3.23978391,9.82872184" id="Fill-5" fill="#7D0000"></path>
                        <path d="M1.16677989,11.9247494 C1.3424046,12.561577 1.62194483,13.0140828 1.82635862,13.2901287 C2.09716322,13.6552782 2.71302529,14.4869103 3.78314023,14.6721057 C4.33348506,14.7664506 4.80171494,14.6546345 5.0830023,14.5611632 C4.74143908,14.9114621 4.39987586,15.2626345 4.06005977,15.6138069 C4.06005977,15.6138069 1.15458851,14.3480138 1.16677989,11.9247494" id="Fill-7" fill="#7D0000"></path>
                        <path d="M26.4101747,23.4674897 C26.4101747,30.5975126 20.6306805,36.3770069 13.5006575,36.3770069 C6.36976092,36.3770069 0.589393103,30.5975126 0.589393103,23.4674897 C0.589393103,16.3374667 6.36976092,10.5579724 13.5006575,10.5579724 C20.6306805,10.5579724 26.4101747,16.3374667 26.4101747,23.4674897" id="Fill-9" fill="#FFFFFF"></path>
                        <path d="M13.4995218,10.6997517 C6.45947586,10.6997517 0.731521839,16.4268322 0.731521839,23.4668782 C0.731521839,30.5069241 6.45947586,36.2348782 13.4995218,36.2348782 C20.5413149,36.2348782 26.2683954,30.5069241 26.2683954,23.4668782 C26.2683954,16.4268322 20.5413149,10.6997517 13.4995218,10.6997517 M13.4995218,36.5187862 C6.30310805,36.5187862 0.447613793,30.6641655 0.447613793,23.4668782 C0.447613793,16.2704644 6.30310805,10.4158437 13.4995218,10.4158437 C20.6968092,10.4158437 26.5523034,16.2704644 26.5523034,23.4668782 C26.5523034,30.6641655 20.6968092,36.5187862 13.4995218,36.5187862" id="Fill-11" fill="#E57D00"></path>
                        <path d="M58.4991218,9.03238161 C58.4545701,9.69104828 58.2702483,10.1898529 58.1252368,10.5017149 C57.9330529,10.9140368 57.4962713,11.8513701 56.4846851,12.2462207 C55.9640414,12.4497609 55.482708,12.4340368 55.1883172,12.3973471 C55.592777,12.6733931 55.9981103,12.9494391 56.4025701,13.2246115 C56.4025701,13.2246115 58.9944322,11.4041057 58.4991218,9.03238161" id="Fill-13" fill="#7D0000"></path>
                        <path d="M60.5721259,11.1284092 C60.3965011,11.7652368 60.1169609,12.2177425 59.9116736,12.4937885 C59.6417425,12.8589379 59.0250069,13.6905701 57.9557655,13.874892 C57.4054207,13.9701103 56.9363172,13.8582943 56.6559034,13.764823 C56.9965931,14.1151218 57.3390299,14.4662943 57.678846,14.8174667 C57.678846,14.8174667 60.5843172,13.5516736 60.5721259,11.1284092" id="Fill-15" fill="#7D0000"></path>
                        <path d="M59.671269,20.6420368 C59.671269,26.7962897 54.6823494,31.7860828 48.527223,31.7860828 C42.3729701,31.7860828 37.3823034,26.7962897 37.3823034,20.6420368 C37.3823034,14.4869103 42.3729701,9.4979908 48.527223,9.4979908 C54.6823494,9.4979908 59.671269,14.4869103 59.671269,20.6420368" id="Fill-17" fill="#FFFFFF"></path>
                        <path d="M48.5260874,9.6402069 C42.4600644,9.6402069 37.5244322,14.5749655 37.5244322,20.6418621 C37.5244322,26.7078851 42.4600644,31.6435172 48.5260874,31.6435172 C54.5938575,31.6435172 59.5294897,26.7078851 59.5294897,20.6418621 C59.5294897,14.5749655 54.5938575,9.6402069 48.5260874,9.6402069 M48.5260874,31.9282989 C42.302823,31.9282989 37.2405241,26.8651264 37.2405241,20.6418621 C37.2405241,14.4185977 42.302823,9.35629885 48.5260874,9.35629885 C54.7502253,9.35629885 59.8133977,14.4185977 59.8133977,20.6418621 C59.8133977,26.8651264 54.7502253,31.9282989 48.5260874,31.9282989" id="Fill-19" fill="#E57D00"></path>
                        <path d="M19.5513057,23.7434483 C19.5513057,25.9465747 17.764869,27.7338851 15.5591218,27.7338851 C13.3551218,27.7338851 11.5686851,25.9465747 11.5686851,23.7434483 C11.5686851,21.5394483 13.3551218,19.7521379 15.5591218,19.7521379 C17.764869,19.7521379 19.5513057,21.5394483 19.5513057,23.7434483" id="Fill-21" fill="#000000"></path>
                        <path d="M19.428046,21.4720966 C19.428046,22.7265333 18.4112184,23.7433609 17.155908,23.7433609 C15.9014713,23.7433609 14.8855172,22.7265333 14.8855172,21.4720966 C14.8855172,20.2176598 15.9014713,19.2008322 17.155908,19.2008322 C18.4112184,19.2008322 19.428046,20.2176598 19.428046,21.4720966" id="Fill-23" fill="#FFFFFF"></path>
                        <path d="M54.5778713,20.0278345 C54.5778713,22.232708 52.7914345,24.0191448 50.5874345,24.0191448 C48.3816874,24.0191448 46.5952506,22.232708 46.5952506,20.0278345 C46.5952506,17.824708 48.3816874,16.0373977 50.5874345,16.0373977 C52.7914345,16.0373977 54.5778713,17.824708 54.5778713,20.0278345" id="Fill-25" fill="#000000"></path>
                        <path d="M54.4550483,17.7569195 C54.4550483,19.0113563 53.4373471,20.0281839 52.1829103,20.0281839 C50.9284736,20.0281839 49.9125195,19.0113563 49.9125195,17.7569195 C49.9125195,16.5024828 50.9284736,15.4856552 52.1829103,15.4856552 C53.4373471,15.4856552 54.4550483,16.5024828 54.4550483,17.7569195" id="Fill-27" fill="#FFFFFF"></path>
                        <path d="M6.5498023,7.29844598 C6.86166437,6.99269885 11.610354,2.37242299 14.1733885,1.21058391 C14.6127908,1.01053793 15.506446,0.620055172 16.4219402,0.928422989 C16.8997793,1.08915862 17.4702161,1.46828506 17.5427218,1.80023908 C17.7052046,2.53490575 15.6479632,4.02782529 6.5498023,7.29844598" id="Fill-29" fill="#7D0000"></path>
                        <path d="M46.1190713,7.07883218 C45.0078989,6.05501609 43.9587494,5.41207356 43.2136,5.01984368 C41.7425195,4.24324598 40.2399908,3.45092414 38.7444506,3.97069425 C37.9224276,4.25722299 37.0340138,4.9648092 37.1449563,5.46011954 C37.265508,6.00522299 38.5461517,6.08384368 41.1720828,6.39832644 C43.3341517,6.65690115 45.0594391,6.91372874 46.1190713,7.07883218" id="Fill-31" fill="#7D0000"></path>
                        <path d="M48.2279402,62.6745793 C50.490469,62.421246 57.6921241,61.3423954 61.4335954,55.9035908 C62.3027908,54.6395448 63.7834805,52.4888322 63.1431586,50.0437287 C62.4975954,47.573292 60.1249977,46.4717287 59.8410897,46.3459356 C56.9548368,45.0600506 54.2747448,46.6149931 54.0170437,46.7704874 C53.9017333,46.3319586 53.2771356,44.1366943 51.0644,42.8577977 C50.8757103,42.7486023 48.2532736,41.287131 45.7758483,42.4183954 C43.1700092,43.6081885 42.5681241,46.8246483 42.3069287,48.2162345 C40.9878483,55.2676368 47.078331,61.5293379 48.2279402,62.6745793" id="Fill-33" fill="#FF482E"></path>
                        <path d="M32.6526575,49.0968736 C34.4329793,46.8544368 36.8562437,45.8830345 38.5605655,46.5949885 C39.3458989,46.9225747 40.5706345,47.8555402 40.6344046,49.0968736 C40.6667264,49.7371954 40.3793241,50.2508506 40.1818989,50.6063908 C39.5861287,51.6721379 38.6697609,52.1910345 38.2408414,52.398069 C39.4018069,52.087954 40.5872322,52.4862989 41.1847494,53.3633563 C41.6861747,54.1006437 41.8014851,55.2153103 41.2677379,55.9421149 C40.9488874,56.3762759 40.4387264,56.6156322 39.6533931,56.7475402 C37.2100368,57.1554943 34.6601057,56.0888736 33.3873241,55.459908 C33.8040138,55.5088276 34.2198299,55.5577471 34.6373931,55.6075402 C35.2200598,55.8145747 37.593531,56.6077701 39.1248874,55.7909885 C39.3424046,55.6756782 39.741623,55.4555402 39.8971172,55.0187586 C40.1784046,54.2290575 39.4227724,53.4070345 39.3825885,53.3633563 C38.4801977,52.4094253 36.9654391,52.7894253 36.8807034,52.8121379 C38.3116,52.0145747 39.0716,50.6238621 38.829623,49.3912644 C38.8200138,49.3371034 38.6068644,48.3307586 37.7271862,47.7734253 C36.459646,46.9688736 34.3569793,47.4405977 32.6526575,49.0968736" id="Fill-35" fill="#7D0000"></path>
                    </g>
                </g>
            </g>
        </g>
    </g>
</svg>