<?xml version="1.0" encoding="UTF-8"?>
<svg width="78px" height="78px" viewBox="0 0 78 78" version="1.1" xmlns="http://www.w3.org/2000/svg" xmlns:xlink="http://www.w3.org/1999/xlink">
    <!-- Generator: Sketch 52.2 (67145) - http://www.bohemiancoding.com/sketch -->
    <title>差1</title>
    <desc>Created with Sketch.</desc>
    <g id="Page-1" stroke="none" stroke-width="1" fill="none" fill-rule="evenodd" opacity="0.66">
        <g id="记录昨晚睡眠-/笑脸" transform="translate(-185.000000, -1458.000000)" fill="#8CAAFF" stroke="#8CAAFF" stroke-width="1.5">
            <g id="差1-" transform="translate(185.000000, 1458.000000)">
                <g id="差">
                    <path d="M38.4907037,52.179989 C39.6062646,52.179989 40.7218256,52.2522939 41.8308134,52.3969037 L52.789228,53.8289159 C53.3357402,53.8101354 53.8381183,53.5519037 54.174289,53.1143183 C54.5104598,52.6748549 54.6231427,52.1217695 54.48135,51.5949768 C52.7328866,45.0743915 46.2076061,40.5201232 38.6127768,40.5201232 C31.0179476,40.5201232 24.491728,45.0743915 22.7432646,51.5949768 C22.602411,52.1217695 22.7150939,52.6748549 23.0522037,53.1143183 C23.3874354,53.5519037 23.8888744,53.8101354 24.4353866,53.8289159 L35.075472,52.4072329 C36.2079354,52.25605 37.349789,52.179989 38.4907037,52.179989 M52.7253744,56.0243549 L52.5835817,56.0140256 L41.546289,54.5726232 C39.4963988,54.3050012 37.4164598,54.3078183 35.3656305,54.5810744 L24.5001793,56.0243549 C23.2409476,56.0243549 22.0784354,55.449672 21.3112524,54.449611 C20.5553378,53.4655134 20.3055573,52.21755 20.6248256,51.0268671 C22.6296427,43.5494159 30.0272768,38.3265622 38.6127768,38.3265622 C47.1982768,38.3265622 54.594972,43.5494159 56.600728,51.0268671 C56.9199963,52.21755 56.6692768,53.4655134 55.9143012,54.449611 C55.1471183,55.449672 53.9846061,56.0243549 52.7253744,56.0243549" id="Fill-1"></path>
                    <g id="分组" transform="translate(0.000000, 0.225272)">
                        <path d="M38.6130585,2.90768902 C19.0494244,2.90768902 3.13296098,18.8241524 3.13296098,38.3868476 C3.13296098,57.9514207 19.0494244,73.8669451 38.6130585,73.8669451 C58.1757537,73.8669451 74.0922171,57.9514207 74.0922171,38.3868476 C74.0922171,18.8241524 58.1757537,2.90768902 38.6130585,2.90768902 M38.6130585,76.0605061 C17.839022,76.0605061 0.938460976,59.1608841 0.938460976,38.3868476 C0.938460976,17.614689 17.839022,0.714128049 38.6130585,0.714128049 C59.3861561,0.714128049 76.2867171,17.614689 76.2867171,38.3868476 C76.2867171,59.1608841 59.3861561,76.0605061 38.6130585,76.0605061" id="Fill-3"></path>
                    </g>
                    <path d="M18.1773524,34.6383561 C17.1519378,34.6383561 16.1368524,34.520978 15.1546329,34.2796488 C14.5658646,34.135978 14.2062183,33.5425146 14.349889,32.9537463 C14.4944988,32.364978 15.0898402,32.0034537 15.6767305,32.1499415 C18.7867793,32.9105512 22.3231451,32.1884415 25.1355232,30.2146122 C27.7957793,28.3468927 29.8024744,25.4387341 30.786572,22.0235024 C30.9537183,21.4422463 31.560328,21.1070146 32.1444012,21.274161 C32.7265963,21.4413073 33.0627671,22.0488561 32.8946817,22.6310512 C31.7734866,26.5251854 29.4653646,29.8559049 26.3956939,32.0100268 C23.9504744,33.7256244 21.0301085,34.6383561 18.1773524,34.6383561" id="Fill-5"></path>
                    <path d="M59.0482951,34.6383561 C56.195539,34.6383561 53.2751732,33.7256244 50.8299537,32.0090878 C47.7602829,29.8559049 45.452161,26.5251854 44.3309659,22.6310512 C44.1628805,22.0488561 44.4990512,21.4413073 45.0812463,21.274161 C45.6634415,21.1070146 46.2719293,21.4422463 46.4390756,22.0244415 C47.4222341,25.4377951 49.4289293,28.3468927 52.0901244,30.2136732 C54.9025024,32.1884415 58.4388683,32.9114902 61.5489171,32.1499415 C62.1339293,32.0025146 62.7311488,32.364978 62.8748195,32.9537463 C63.0194293,33.5425146 62.6597829,34.135978 62.0710146,34.2796488 C61.0887951,34.520978 60.0727707,34.6383561 59.0482951,34.6383561" id="Fill-7"></path>
                </g>
            </g>
        </g>
    </g>
</svg>