<?xml version="1.0" encoding="UTF-8"?>
<svg width="15px" height="27px" viewBox="0 0 15 27" version="1.1" xmlns="http://www.w3.org/2000/svg" xmlns:xlink="http://www.w3.org/1999/xlink">
    <!-- Generator: Sketch 52.2 (67145) - http://www.bohemiancoding.com/sketch -->
    <title>fanhui</title>
    <desc>Created with Sketch.</desc>
    <g id="Page-1" stroke="none" stroke-width="1" fill="none" fill-rule="evenodd" opacity="0.229282924">
        <g id="记录昨晚睡眠-/笑脸" transform="translate(-707.000000, -443.000000)" fill="#000000">
            <g id="fanhui-2" transform="translate(707.000000, 443.000000)">
                <g id="fanhui" transform="translate(7.500000, 13.500000) scale(-1, 1) translate(-7.500000, -13.500000) ">
                    <path d="M3.6845468,13.6078744 L14.547321,2.65558515 C15.1459489,2.05277536 15.1459489,1.07547272 14.547321,0.473414091 C13.9501831,-0.129395696 12.9808681,-0.129395696 12.3829852,0.473414091 L0.476906451,12.4768602 C-0.120231441,13.0789188 -0.120231441,14.0562215 0.476906451,14.6590313 C0.523991809,14.7065046 0.577800268,14.7441769 0.629367704,14.7841146 C0.638337763,14.7939097 0.645060835,14.8052132 0.654030895,14.8150083 L12.2806014,26.537388 C12.8642871,27.1258836 13.8104349,27.1258836 14.3941147,26.537388 C14.9777945,25.9488923 14.9778005,24.9949478 14.3941147,24.4064581 L3.6845468,13.6078744 Z" id="路径"></path>
                </g>
            </g>
        </g>
    </g>
</svg>