<?xml version="1.0" encoding="UTF-8"?>
<svg width="75px" height="76px" viewBox="0 0 75 76" version="1.1" xmlns="http://www.w3.org/2000/svg" xmlns:xlink="http://www.w3.org/1999/xlink">
    <!-- Generator: Sketch 52.2 (67145) - http://www.bohemiancoding.com/sketch -->
    <title>非常棒</title>
    <desc>Created with Sketch.</desc>
    <defs>
        <path d="M37.4051034,0.315356322 C16.747954,0.315356322 0,17.0624368 0,37.7213333 C0,58.3793563 16.747954,75.1264368 37.4051034,75.1264368 C58.0631264,75.1264368 74.8110805,58.3793563 74.8110805,37.7213333 C74.8110805,17.0624368 58.0631264,0.315356322 37.4051034,0.315356322 Z" id="path-1"></path>
        <linearGradient x1="49.9998797%" y1="100%" x2="49.9998797%" y2="0.000472214762%" id="linearGradient-3">
            <stop stop-color="#FFF450" offset="0%"></stop>
            <stop stop-color="#FF9000" offset="100%"></stop>
        </linearGradient>
        <path d="M0.42891954,12.8125517 C0.42891954,19.6778851 10.5133333,25.2442299 22.9546207,25.2442299 C35.3932874,25.2442299 45.4785747,19.6778851 45.4785747,12.8125517 C45.4785747,5.94809195 35.3932874,0.381747126 22.9546207,0.381747126 C10.5133333,0.381747126 0.42891954,5.94809195 0.42891954,12.8125517" id="path-4"></path>
        <linearGradient x1="49.9995433%" y1="100.00021%" x2="49.9995433%" y2="-0.000320789853%" id="linearGradient-6">
            <stop stop-color="#FFFFFF" offset="0%"></stop>
            <stop stop-color="#FFD61A" offset="100%"></stop>
        </linearGradient>
    </defs>
    <g id="Page-1" stroke="none" stroke-width="1" fill="none" fill-rule="evenodd">
        <g id="记录昨晚睡眠-/笑脸" transform="translate(-625.000000, -1458.000000)">
            <g id="非常棒" transform="translate(625.000000, 1458.000000)">
                <g transform="translate(0.000000, 0.000000)" id="分组">
                    <g transform="translate(0.000000, 0.557857)">
                        <mask id="mask-2" fill="white">
                            <use xlink:href="#path-1"></use>
                        </mask>
                        <g id="Clip-2"></g>
                        <path d="M37.4051034,0.315356322 C16.747954,0.315356322 0,17.0624368 0,37.7213333 C0,58.3793563 16.747954,75.1264368 37.4051034,75.1264368 C58.0631264,75.1264368 74.8110805,58.3793563 74.8110805,37.7213333 C74.8110805,17.0624368 58.0631264,0.315356322 37.4051034,0.315356322 Z" id="Fill-1" fill="url(#linearGradient-3)" mask="url(#mask-2)"></path>
                    </g>
                    <g transform="translate(13.977011, 3.178547)">
                        <mask id="mask-5" fill="white">
                            <use xlink:href="#path-4"></use>
                        </mask>
                        <g id="Clip-4"></g>
                        <path d="M0.42891954,12.8125517 C0.42891954,19.6778851 10.5133333,25.2442299 22.9546207,25.2442299 C35.3932874,25.2442299 45.4785747,19.6778851 45.4785747,12.8125517 C45.4785747,5.94809195 35.3932874,0.381747126 22.9546207,0.381747126 C10.5133333,0.381747126 0.42891954,5.94809195 0.42891954,12.8125517" id="Fill-3" fill="url(#linearGradient-6)" mask="url(#mask-5)"></path>
                    </g>
                    <g transform="translate(7.862069, 13.661306)">
                        <path d="M1.59722299,30.8333747 C5.2426023,39.4720414 16.4661425,45.5170989 29.2559816,45.7582023 C42.285177,46.0028 54.1289471,40.1700184 58.2381885,31.4509839 C54.6993839,40.4233517 42.8442575,46.630892 29.5494989,46.4780184 C16.2748322,46.3251448 4.72894713,39.8651448 1.59722299,30.8333747" id="Fill-5" fill="#7D0000"></path>
                        <path d="M2.46903908,30.169292 C2.57561379,30.8725103 2.26986667,31.5014759 1.78765977,31.5739816 C1.30632644,31.6464874 0.82936092,31.1354529 0.72365977,30.4322345 C0.617958621,29.7298897 0.922832184,29.1009241 1.40503908,29.0275448 C1.88637241,28.9550391 2.36333793,29.4669471 2.46903908,30.169292" id="Fill-7" fill="#7D0000"></path>
                        <path d="M59.3163402,31.3670345 C59.126777,32.0527816 58.5921563,32.5026667 58.1230529,32.3725057 C57.6522023,32.2423448 57.4250759,31.5810575 57.6155126,30.8961839 C57.8059494,30.2104368 58.3405701,29.7614253 58.8088,29.8907126 C59.2796506,30.0208736 59.5059034,30.6821609 59.3163402,31.3670345" id="Fill-9" fill="#7D0000"></path>
                        <path d="M44.9273563,22.6411862 C47.0955402,21.9467034 53.9434023,19.4684046 56.5387586,13.3988874 C57.1423908,11.9889563 58.1688276,9.5884046 57.0594023,7.31714023 C55.9386207,5.02228966 53.3956782,4.4107954 53.0934253,4.34265747 C50.0097471,3.65166897 47.6886897,5.70366897 47.465931,5.90808276 C47.2667586,5.5010023 46.2211034,3.47084138 43.8004598,2.65405977 C43.5942989,2.58504828 40.736,1.66868046 38.5293793,3.26642759 C36.2091954,4.94716322 36.2528736,8.21865747 36.272092,9.63382989 C36.369931,16.807531 43.5742069,21.7449103 44.9273563,22.6411862" id="Fill-11" fill="#FC1D1D"></path>
                        <path d="M17.049246,24.285931 C19.1021195,22.5728736 25.4599126,16.8554023 25.6049241,9.10514943 C25.6398667,7.3056092 25.6966483,4.24027586 23.4882805,2.25728736 C21.2572,0.255954023 18.2189471,0.711954023 17.8599126,0.772229885 C14.1996828,1.38022989 12.5800966,4.63774713 12.4280966,4.95834483 C12.0306253,4.6028046 9.99784368,2.85567816 7.00326897,3.03563218 C6.74818851,3.05048276 3.23297011,3.31517241 1.53825747,6.02758621 C-0.244685057,8.87977011 1.24648736,12.4194483 1.89205057,13.9508046 C5.16354483,21.7141609 15.1806943,23.9076782 17.049246,24.285931" id="Fill-13" fill="#FC1D1D"></path>
                    </g>
                </g>
            </g>
        </g>
    </g>
</svg>