<?xml version="1.0" encoding="UTF-8"?>
<svg width="38px" height="41px" viewBox="0 0 38 41" version="1.1" xmlns="http://www.w3.org/2000/svg" xmlns:xlink="http://www.w3.org/1999/xlink">
    <!-- Generator: Sketch 52.2 (67145) - http://www.bohemiancoding.com/sketch -->
    <title>分组 2</title>
    <desc>Created with Sketch.</desc>
    <g id="Page-1" stroke="none" stroke-width="1" fill="none" fill-rule="evenodd">
        <g id="记录昨晚睡眠-/笑脸" transform="translate(-30.000000, -1082.000000)" fill-rule="nonzero">
            <g id="夜醒" transform="translate(32.000000, 1084.000000)">
                <g id="分组-2">
                    <path d="M5.36842105,26.1707317 L27.8105452,26.1707317 C27.5030162,32.152551 22.5967805,36.9073376 16.5894831,36.9073376 C10.5821858,36.9073376 5.67595006,32.152551 5.36842105,26.1707317 Z" id="合并形状-copy" fill="#A9BDF9" transform="translate(16.589483, 31.539035) scale(1, -1) translate(-16.589483, -31.539035) "></path>
                    <path d="M1.78947368,-3.55271368e-15 L31.3024917,-3.55271368e-15 C31.0659845,8.01491389 24.5497963,14.4390244 16.5459827,14.4390244 C8.54216905,14.4390244 2.02598087,8.01491389 1.78947368,-2.30371278e-15 Z" id="合并形状" stroke="#1C52F0" stroke-width="3.5"></path>
                    <path d="M-1.17239551e-13,19.8536585 L33.9867024,19.8536585 C33.7143447,29.0835005 26.2104103,36.4813997 16.9933512,36.4813997 C7.77629208,36.4813997 0.272357751,29.0835005 -1.20316083e-13,19.8536585 Z" id="合并形状-copy" stroke="#1C52F0" stroke-width="3.5" transform="translate(16.993351, 28.167529) scale(1, -1) translate(-16.993351, -28.167529) "></path>
                </g>
            </g>
        </g>
    </g>
</svg>