<?xml version="1.0" encoding="UTF-8"?>
<svg width="76px" height="76px" viewBox="0 0 76 76" version="1.1" xmlns="http://www.w3.org/2000/svg" xmlns:xlink="http://www.w3.org/1999/xlink">
    <!-- Generator: Sketch 52.2 (67145) - http://www.bohemiancoding.com/sketch -->
    <title>分组</title>
    <desc>Created with Sketch.</desc>
    <defs>
        <path d="M37.8391628,0.319906977 C16.941814,0.319906977 0,17.2617209 0,38.1599535 C0,59.0590698 16.941814,76 37.8391628,76 C58.7382791,76 75.680093,59.0590698 75.680093,38.1599535 C75.680093,17.2617209 58.7382791,0.319906977 37.8391628,0.319906977 Z" id="path-1"></path>
        <linearGradient x1="50.0003299%" y1="100%" x2="50.0003299%" y2="0.000373549125%" id="linearGradient-3">
            <stop stop-color="#FFF450" offset="0%"></stop>
            <stop stop-color="#FF9000" offset="100%"></stop>
        </linearGradient>
        <path d="M0.176846154,13.022037 C0.176846154,19.9341667 10.4875128,25.5391667 23.2070385,25.5391667 C35.9256709,25.5391667 46.2363376,19.9341667 46.2363376,13.022037 C46.2363376,6.10902778 35.9256709,0.503148148 23.2070385,0.503148148 C10.4875128,0.503148148 0.176846154,6.10902778 0.176846154,13.022037" id="path-4"></path>
        <linearGradient x1="49.9999374%" y1="100.000069%" x2="49.9999374%" y2="0.00195207645%" id="linearGradient-6">
            <stop stop-color="#FFFFFF" offset="0%"></stop>
            <stop stop-color="#FFD61A" offset="100%"></stop>
        </linearGradient>
        <path d="M2.46395455,19.8681944 C3.74645455,20.8841667 5.89690909,20.9730093 7.22431818,20.0150926 C11.8637727,16.6645833 5.56009091,1.17518519 5.20427273,0.316666667 C0.6745,9.81402778 -0.504363636,17.5169444 2.46395455,19.8681944" id="path-7"></path>
        <linearGradient x1="49.9987233%" y1="99.9997959%" x2="49.9987233%" y2="0.00367652821%" id="linearGradient-9">
            <stop stop-color="#FFFFFF" offset="0%"></stop>
            <stop stop-color="#14DBFB" offset="100%"></stop>
        </linearGradient>
        <path d="M1.27571429,14.1701503 C2.22480952,14.8794837 3.81719048,14.9420719 4.7997619,14.2718562 C8.23604762,11.9334902 3.56838095,1.11181046 3.30509524,0.512875817 C-0.0497619048,7.14635948 -0.921047619,12.5280784 1.27571429,14.1701503" id="path-10"></path>
        <linearGradient x1="49.9989841%" y1="100.00045%" x2="49.9989841%" y2="-0.000593276634%" id="linearGradient-12">
            <stop stop-color="#FFFFFF" offset="0%"></stop>
            <stop stop-color="#14DBFB" offset="100%"></stop>
        </linearGradient>
    </defs>
    <g id="Page-1" stroke="none" stroke-width="1" fill="none" fill-rule="evenodd">
        <g id="记录昨晚睡眠-/笑脸" transform="translate(-39.000000, -1458.000000)">
            <g id="十分差" transform="translate(39.000000, 1458.000000)">
                <g id="分组">
                    <g>
                        <mask id="mask-2" fill="white">
                            <use xlink:href="#path-1"></use>
                        </mask>
                        <g id="Clip-2"></g>
                        <path d="M37.8391628,0.319906977 C16.941814,0.319906977 0,17.2617209 0,38.1599535 C0,59.0590698 16.941814,76 37.8391628,76 C58.7382791,76 75.680093,59.0590698 75.680093,38.1599535 C75.680093,17.2617209 58.7382791,0.319906977 37.8391628,0.319906977 Z" id="Fill-1" fill="url(#linearGradient-3)" mask="url(#mask-2)"></path>
                    </g>
                    <g transform="translate(14.777778, 3.166667)">
                        <mask id="mask-5" fill="white">
                            <use xlink:href="#path-4"></use>
                        </mask>
                        <g id="Clip-4"></g>
                        <path d="M0.176846154,13.022037 C0.176846154,19.9341667 10.4875128,25.5391667 23.2070385,25.5391667 C35.9256709,25.5391667 46.2363376,19.9341667 46.2363376,13.022037 C46.2363376,6.10902778 35.9256709,0.503148148 23.2070385,0.503148148 C10.4875128,0.503148148 0.176846154,6.10902778 0.176846154,13.022037" id="Fill-3" fill="url(#linearGradient-6)" mask="url(#mask-5)"></path>
                    </g>
                    <g transform="translate(11.611111, 3.166667)">
                        <path d="M2.35853333,8.13252778 C2.40324237,8.79576852 2.58733842,9.29891667 2.73286196,9.61294444 C2.92572448,10.0281296 3.36492505,10.9719722 4.37920659,11.3695648 C4.90256535,11.5736389 5.38559831,11.5586852 5.68102863,11.5217407 C5.27426403,11.7997037 4.86837608,12.076787 4.46248814,12.35475 C4.46248814,12.35475 1.86059736,10.5216019 2.35853333,8.13252778" id="Fill-5" fill="#7D0000"></path>
                        <path d="M0.278121709,10.2439907 C0.454366573,10.8852407 0.734893879,11.3400093 0.940029473,11.6179722 C1.2117903,11.986537 1.82982702,12.8248241 2.90372062,13.0095463 C3.45600876,13.1054259 3.92676864,12.9928333 4.2081726,12.8978333 C3.8654033,13.2523241 3.52351064,13.6050556 3.18074134,13.9595463 C3.18074134,13.9595463 0.265887288,12.6840833 0.278121709,10.2439907" id="Fill-7" fill="#7D0000"></path>
                        <path d="M26.1405864,21.132838 C26.1405864,28.3114954 20.3406844,34.131125 13.1854847,34.131125 C6.03116177,34.131125 0.230383051,28.3114954 0.230383051,21.132838 C0.230383051,13.9524213 6.03116177,8.13279167 13.1854847,8.13279167 C20.3406844,8.13279167 26.1405864,13.9524213 26.1405864,21.132838" id="Fill-9" fill="#FFFFFF"></path>
                        <path d="M13.1856601,8.27590741 C6.12075518,8.27590741 0.37257533,14.0436389 0.37257533,21.1325741 C0.37257533,28.2215093 6.12075518,33.9892407 13.1856601,33.9892407 C20.2514416,33.9892407 25.9996215,28.2215093 25.9996215,21.1325741 C25.9996215,14.0436389 20.2514416,8.27590741 13.1856601,8.27590741 M13.1856601,34.276 C5.96295857,34.276 0.0876647834,28.378963 0.0876647834,21.1325741 C0.0876647834,13.8853056 5.96295857,7.99002778 13.1856601,7.99002778 C20.4083616,7.99002778 26.284532,13.8853056 26.284532,21.1325741 C26.284532,28.378963 20.4083616,34.276 13.1856601,34.276" id="Fill-11" fill="#E57D00"></path>
                        <path d="M48.0995627,9.05253241 C48.0548537,9.71665278 47.8707576,10.2180417 47.7243574,10.5329491 C47.5323716,10.9472546 47.093171,11.8919769 46.0780128,12.2895694 C45.5555307,12.4936435 45.0724977,12.4786898 44.7779441,12.4417454 C45.183832,12.7197083 45.58972,12.9967917 45.9964846,13.2756343 C45.9964846,13.2756343 48.5974987,11.4416065 48.0995627,9.05253241" id="Fill-13" fill="#7D0000"></path>
                        <path d="M50.1799743,11.1639954 C50.0037295,11.8052454 49.7232022,12.2608935 49.5180666,12.5379769 C49.2463057,12.9065417 48.628269,13.7439491 47.5552521,13.9304306 C47.0020873,14.0263102 46.532204,13.9137176 46.2508001,13.8187176 C46.5918161,14.1714491 46.9345854,14.5250602 47.2773547,14.8795509 C47.2773547,14.8795509 50.1922088,13.604088 50.1799743,11.1639954" id="Fill-15" fill="#7D0000"></path>
                        <path d="M51.1353065,22.1318333 C51.1353065,28.3297037 46.1278941,33.3541481 39.9510334,33.3541481 C33.7741728,33.3541481 28.7667604,28.3297037 28.7667604,22.1318333 C28.7667604,15.9348426 33.7741728,10.9103981 39.9510334,10.9103981 C46.1278941,10.9103981 51.1353065,15.9348426 51.1353065,22.1318333" id="Fill-17" fill="#FFFFFF"></path>
                        <path d="M39.9512088,11.053162 C33.8637662,11.053162 28.9098293,16.0230694 28.9098293,22.1320972 C28.9098293,28.241125 33.8637662,33.2110324 39.9512088,33.2110324 C46.039528,33.2110324 50.9925882,28.241125 50.9925882,22.1320972 C50.9925882,16.0230694 46.039528,11.053162 39.9512088,11.053162 M39.9512088,33.496912 C33.7059696,33.496912 28.6257954,28.3994583 28.6257954,22.1320972 C28.6257954,15.8656157 33.7059696,10.7672824 39.9512088,10.7672824 C46.1964479,10.7672824 51.2774988,15.8656157 51.2774988,22.1320972 C51.2774988,28.3994583 46.1964479,33.496912 39.9512088,33.496912" id="Fill-19" fill="#E57D00"></path>
                        <path d="M5.92675301,7.09306944 C6.23971629,6.78519907 11.0051739,2.13195833 13.576382,0.962930556 C14.0182125,0.762375 14.9150233,0.368300926 15.8346268,0.678810185 C16.3123999,0.840662037 16.8857276,1.2224213 16.9584894,1.55668056 C17.1197926,2.2973287 15.0570402,3.80061574 5.92675301,7.09306944" id="Fill-21" fill="#7D0000"></path>
                        <path d="M42.9235709,8.13252778 C41.8084749,7.10160185 40.7564975,6.45507407 40.0078402,6.05924074 C38.5324419,5.27812963 37.023731,4.47942593 35.5237865,5.00368519 C34.6979843,5.2922037 33.8073101,6.0047037 33.9177677,6.50257407 C34.0396218,7.05146296 35.3239108,7.13150926 37.9591142,7.44817593 C40.1288176,7.7085463 41.8601971,7.96627778 42.9235709,8.13252778" id="Fill-23" fill="#7D0000"></path>
                        <path d="M17.1904504,20.5400556 C17.1904504,22.7584815 15.3977056,24.5582037 13.1859231,24.5582037 C10.9741406,24.5582037 9.18051911,22.7584815 9.18051911,20.5400556 C9.18051911,18.32075 10.9741406,16.5219074 13.1859231,16.5219074 C15.3977056,16.5219074 17.1904504,18.32075 17.1904504,20.5400556" id="Fill-25" fill="#000000"></path>
                        <path d="M17.067632,18.2524907 C17.067632,19.5165185 16.0472139,20.5404074 14.7883476,20.5404074 C13.5294814,20.5404074 12.5090633,19.5165185 12.5090633,18.2524907 C12.5090633,16.9893426 13.5294814,15.9654537 14.7883476,15.9654537 C16.0472139,15.9654537 17.067632,16.9893426 17.067632,18.2524907" id="Fill-27" fill="#FFFFFF"></path>
                        <path d="M43.9560867,22.039912 C43.9560867,24.258338 42.1633419,26.0580602 39.9515594,26.0580602 C37.7389003,26.0580602 35.9461555,24.258338 35.9461555,22.039912 C35.9461555,19.8206065 37.7389003,18.0217639 39.9515594,18.0217639 C42.1633419,18.0217639 43.9560867,19.8206065 43.9560867,22.039912" id="Fill-29" fill="#000000"></path>
                        <path d="M43.833619,19.7523472 C43.833619,21.016375 42.8132009,22.0402639 41.553458,22.0402639 C40.2954684,22.0402639 39.2750503,21.016375 39.2750503,19.7523472 C39.2750503,18.4891991 40.2954684,17.4653102 41.553458,17.4653102 C42.8132009,17.4653102 43.833619,18.4891991 43.833619,19.7523472" id="Fill-31" fill="#FFFFFF"></path>
                        <path d="M22.2440621,57.4707778 C22.2440621,57.4707778 26.5624294,51.9159167 31.5452957,57.4707778 L22.2440621,57.4707778 Z" id="Fill-33" fill="#7D0000"></path>
                    </g>
                    <g transform="translate(53.833333, 33.777778)">
                        <mask id="mask-8" fill="white">
                            <use xlink:href="#path-7"></use>
                        </mask>
                        <g id="Clip-36"></g>
                        <path d="M2.46395455,19.8681944 C3.74645455,20.8841667 5.89690909,20.9730093 7.22431818,20.0150926 C11.8637727,16.6645833 5.56009091,1.17518519 5.20427273,0.316666667 C0.6745,9.81402778 -0.504363636,17.5169444 2.46395455,19.8681944" id="Fill-35" fill="url(#linearGradient-9)" mask="url(#mask-8)"></path>
                    </g>
                    <g transform="translate(10.555556, 32.722222)">
                        <mask id="mask-11" fill="white">
                            <use xlink:href="#path-10"></use>
                        </mask>
                        <g id="Clip-38"></g>
                        <path d="M1.27571429,14.1701503 C2.22480952,14.8794837 3.81719048,14.9420719 4.7997619,14.2718562 C8.23604762,11.9334902 3.56838095,1.11181046 3.30509524,0.512875817 C-0.0497619048,7.14635948 -0.921047619,12.5280784 1.27571429,14.1701503" id="Fill-37" fill="url(#linearGradient-12)" mask="url(#mask-11)"></path>
                    </g>
                </g>
            </g>
        </g>
    </g>
</svg>