<?xml version="1.0" encoding="UTF-8"?>
<svg width="35px" height="39px" viewBox="0 0 35 39" version="1.1" xmlns="http://www.w3.org/2000/svg" xmlns:xlink="http://www.w3.org/1999/xlink">
    <!-- Generator: Sketch 52.2 (67145) - http://www.bohemiancoding.com/sketch -->
    <title>分组</title>
    <desc>Created with Sketch.</desc>
    <g id="Page-1" stroke="none" stroke-width="1" fill="none" fill-rule="evenodd">
        <g id="记录昨晚睡眠-/笑脸" transform="translate(-32.000000, -1210.000000)">
            <g id="时长" transform="translate(32.000000, 1210.000000)">
                <g id="分组">
                    <circle id="椭圆形" fill="#A9BDF9" fill-rule="nonzero" cx="6.80555556" cy="5.83333333" r="2.91666667"></circle>
                    <circle id="椭圆形" fill="#A9BDF9" fill-rule="nonzero" cx="29.1666667" cy="4.86111111" r="2.91666667"></circle>
                    <circle id="椭圆形" fill="#A9BDF9" fill-rule="nonzero" cx="19.9583331" cy="21.9027776" r="6.347222"></circle>
                    <g id="naozhong" fill="#1C52F0">
                        <path d="M30.178187,31.8693183 C36.0205091,25.7069102 36.5947727,16.2392564 31.540107,9.4158881 C32.3551692,8.60217891 32.8954665,7.55402663 33.0854047,6.41808098 C33.3402425,4.85409374 32.903786,3.20787239 31.8571701,1.78702528 C31.7298315,1.6138012 31.5771377,1.46073675 31.4042228,1.33297865 C29.7168844,0.0862743558 27.7982351,-0.284878528 26.0044761,0.28790184 C24.5741095,0.747699085 23.3937047,1.77194513 22.7368795,3.12321963 C19.337175,2.05397425 15.6917521,2.05021474 12.2898493,3.11244564 C11.6211477,1.74710325 10.4185809,0.718286521 8.96618405,0.268992393 C7.18847607,-0.275423804 5.29181448,0.102105521 3.62800294,1.33143951 C3.45492762,1.45915846 3.30208315,1.61222531 3.17461595,1.78548613 C2.12712049,3.20809227 1.69879951,4.7876908 1.93494773,6.35387681 C2.10804983,7.50582016 2.64578343,8.57196294 3.46925153,9.39587926 C-1.58497359,16.1994502 -1.03684863,25.6470791 4.77026552,31.8205055 L1.11436564,35.5208206 C0.739306713,35.8989824 0.594484898,36.4485099 0.734453178,36.9624014 C0.874421459,37.4762928 1.27791532,37.8764759 1.79294253,38.0122056 C2.30796973,38.1479352 2.85628539,37.9985908 3.23134429,37.620429 L6.98728834,33.8191902 C13.1839233,38.5094876 21.7382156,38.5267119 27.9536883,33.8614066 L31.6680756,37.6213085 C32.2478664,38.205896 33.1917816,38.2097845 33.7763691,37.6299936 C34.3609566,37.0502028 34.3648451,36.1062876 33.7850542,35.5217001 L30.178187,31.8693183 Z M26.9081718,3.13157497 C27.7357899,2.86772221 28.6632324,3.05483779 29.533067,3.66081963 C30.0548358,4.41170061 30.2665777,5.19622282 30.145865,5.93698945 C30.068667,6.3957093 29.8658344,6.82405525 29.559892,7.1744589 C28.3521016,6.01795721 26.9853225,5.03988833 25.5009571,4.26987975 C25.81231,3.72878619 26.3139651,3.32299423 26.9081718,3.13157497 Z M5.49739975,3.66081963 C6.35646037,3.0625335 7.2744481,2.87102037 8.09590969,3.12277988 C8.69559839,3.30953615 9.20380073,3.71374524 9.5207146,4.25602748 C8.033443,5.02419364 6.66366738,6.00110281 5.45298454,7.15708859 C5.148358,6.80268802 4.94976824,6.36961602 4.87998429,5.90752589 C4.78768785,5.10697383 5.00896229,4.30178069 5.49739975,3.66081963 Z M2.99585571,19.833015 C3.01151363,11.8275813 9.51114678,5.34913009 17.516589,5.35960407 C25.5220311,5.37007805 32.0046898,11.8655147 31.9993998,19.870962 C31.9941097,27.8764092 25.5028723,34.3632727 17.4974233,34.3631666 C9.48436036,34.3460722 2.99717109,27.8460961 2.99585571,19.833015 Z" id="形状" fill-rule="nonzero"></path>
                        <path d="M25.0009561,22.5078223 L18.5818582,22.5078223 C17.426941,22.5084323 16.4895575,21.5739017 16.4866474,20.418988 L16.4866474,10.449971 C16.514282,9.64464599 17.1751344,9.00608161 17.9809335,9.00608161 C18.7867325,9.00608161 19.447585,9.64464599 19.4752196,10.449971 L19.4752196,19.5284849 L25.0009561,19.5284849 C25.8236774,19.5284849 26.4906248,20.1954323 26.4906248,21.0181536 C26.4906248,21.8408749 25.8236774,22.5078223 25.0009561,22.5078223 Z" id="路径"></path>
                    </g>
                </g>
            </g>
        </g>
    </g>
</svg>