<?xml version="1.0" encoding="UTF-8"?>
<svg width="76px" height="77px" viewBox="0 0 76 77" version="1.1" xmlns="http://www.w3.org/2000/svg" xmlns:xlink="http://www.w3.org/1999/xlink">
    <!-- Generator: Sketch 52.2 (67145) - http://www.bohemiancoding.com/sketch -->
    <title>分组</title>
    <desc>Created with Sketch.</desc>
    <defs>
        <path d="M37.8391628,0.319906977 C16.9409302,0.319906977 0,17.2617209 0,38.1590698 C0,59.058186 16.9409302,76 37.8391628,76 C58.7382791,76 75.680093,59.058186 75.680093,38.1590698 C75.680093,17.2617209 58.7382791,0.319906977 37.8391628,0.319906977 Z" id="path-1"></path>
        <linearGradient x1="49.9999334%" y1="100%" x2="49.9999334%" y2="0.000168733506%" id="linearGradient-3">
            <stop stop-color="#FFF450" offset="0%"></stop>
            <stop stop-color="#FF9000" offset="100%"></stop>
        </linearGradient>
        <path d="M0.76972093,13.0746512 C0.76972093,20.0206977 10.9722791,25.6508837 23.5564651,25.6508837 C36.1406512,25.6508837 46.3432093,20.0206977 46.3432093,13.0746512 C46.3432093,6.12948837 36.1406512,0.500186047 23.5564651,0.500186047 C10.9722791,0.500186047 0.76972093,6.12948837 0.76972093,13.0746512" id="path-4"></path>
        <linearGradient x1="49.999893%" y1="100.000955%" x2="49.999893%" y2="-0.00118622628%" id="linearGradient-6">
            <stop stop-color="#FFFFFF" offset="0%"></stop>
            <stop stop-color="#FFD61A" offset="100%"></stop>
        </linearGradient>
    </defs>
    <g id="Page-1" stroke="none" stroke-width="1" fill="none" fill-rule="evenodd">
        <g id="记录昨晚睡眠-/笑脸" transform="translate(-329.000000, -1458.000000)">
            <g id="正常" transform="translate(329.000000, 1458.000000)">
                <g id="分组" transform="translate(0.000000, 0.000000)">
                    <g transform="translate(0.000000, 0.563637)">
                        <mask id="mask-2" fill="white">
                            <use xlink:href="#path-1"></use>
                        </mask>
                        <g id="Clip-2"></g>
                        <path d="M37.8391628,0.319906977 C16.9409302,0.319906977 0,17.2617209 0,38.1590698 C0,59.058186 16.9409302,76 37.8391628,76 C58.7382791,76 75.680093,59.058186 75.680093,38.1590698 C75.680093,17.2617209 58.7382791,0.319906977 37.8391628,0.319906977 Z" id="Fill-1" fill="url(#linearGradient-3)" mask="url(#mask-2)"></path>
                    </g>
                    <g transform="translate(14.139535, 3.214800)">
                        <mask id="mask-5" fill="white">
                            <use xlink:href="#path-4"></use>
                        </mask>
                        <g id="Clip-4"></g>
                        <path d="M0.76972093,13.0746512 C0.76972093,20.0206977 10.9722791,25.6508837 23.5564651,25.6508837 C36.1406512,25.6508837 46.3432093,20.0206977 46.3432093,13.0746512 C46.3432093,6.12948837 36.1406512,0.500186047 23.5564651,0.500186047 C10.9722791,0.500186047 0.76972093,6.12948837 0.76972093,13.0746512" id="Fill-3" fill="url(#linearGradient-6)" mask="url(#mask-5)"></path>
                    </g>
                    <g transform="translate(7.069767, 10.284567)">
                        <path d="M6.79554884,0.198130233 C6.8406186,0.865339535 7.0262,1.36906047 7.17289767,1.68543256 C7.3682,2.10166512 7.81006047,3.0507814 8.8334093,3.45022326 C9.36010698,3.65524651 9.84703721,3.64022326 10.1448512,3.60310698 C9.73480465,3.88236279 9.32564186,4.16073488 8.91647907,4.4399907 C8.91647907,4.4399907 6.29359535,2.5992 6.79554884,0.198130233" id="Fill-5" fill="#7D0000"></path>
                        <path d="M4.69844011,2.31941395 C4.87610698,2.96364651 5.15889767,3.42053023 5.36568837,3.69978605 C5.63964186,4.07006512 6.26266512,4.91136744 7.34522326,5.09871628 C7.90196744,5.19415814 8.37652558,5.08104186 8.6602,4.98648372 C8.31466512,5.34085581 7.97001395,5.69522791 7.62447907,6.05136744 C7.62447907,6.05136744 4.68610698,4.77085581 4.69844011,2.31941395" id="Fill-7" fill="#7D0000"></path>
                        <path d="M30.7699256,13.2580233 C30.7699256,20.4709535 24.9223442,26.3176512 17.7102977,26.3176512 C10.4973674,26.3176512 4.64978605,20.4709535 4.64978605,13.2580233 C4.64978605,6.04597674 10.4973674,0.198395349 17.7102977,0.198395349 C24.9223442,0.198395349 30.7699256,6.04597674 30.7699256,13.2580233" id="Fill-9" fill="#FFFFFF"></path>
                        <path d="M17.7100326,0.342265116 C10.5881256,0.342265116 4.79356744,6.13682326 4.79356744,13.2578465 C4.79356744,20.3806372 10.5881256,26.1743116 17.7100326,26.1743116 C24.8319395,26.1743116 30.6264977,20.3806372 30.6264977,13.2578465 C30.6264977,6.13682326 24.8319395,0.342265116 17.7100326,0.342265116 M17.7100326,26.4624047 C10.4290558,26.4624047 4.50635814,20.5388233 4.50635814,13.2578465 C4.50635814,5.97775349 10.4290558,0.055055814 17.7100326,0.055055814 C24.9910093,0.055055814 30.913707,5.97775349 30.913707,13.2578465 C30.913707,20.5388233 24.9910093,26.4624047 17.7100326,26.4624047" id="Fill-11" fill="#E57D00"></path>
                        <path d="M52.9057209,1.12329767 C52.8606512,1.78962326 52.6750698,2.29334419 52.5274884,2.60971628 C52.3339535,3.02683256 51.8912093,3.97594884 50.8678605,4.37450698 C50.3411628,4.58041395 49.8542326,4.56450698 49.5564186,4.5273907 C49.9664651,4.80664651 50.3756279,5.0850186 50.7847907,5.36427442 C50.7847907,5.36427442 53.4076744,3.5226 52.9057209,1.12329767" id="Fill-13" fill="#7D0000"></path>
                        <path d="M55.0028297,3.24369767 C54.8251628,3.88793023 54.5423721,4.34481395 54.3355814,4.62406977 C54.0616279,4.99434884 53.4386047,5.83565116 52.3560465,6.023 C51.7993023,6.11844186 51.3247442,6.00532558 51.0410698,5.91076744 C51.3866047,6.26602326 51.7312558,6.62039535 52.0767907,6.97565116 C52.0767907,6.97565116 55.0151628,5.69513953 55.0028297,3.24369767" id="Fill-15" fill="#7D0000"></path>
                        <path d="M55.9655163,14.2625488 C55.9655163,20.4892465 50.9177023,25.5361767 44.6910047,25.5361767 C38.4651907,25.5361767 33.4173767,20.4892465 33.4173767,14.2625488 C33.4173767,8.03673488 38.4651907,2.98892093 44.6910047,2.98892093 C50.9177023,2.98892093 55.9655163,8.03673488 55.9655163,14.2625488" id="Fill-17" fill="#FFFFFF"></path>
                        <path d="M44.6911814,3.13234884 C38.5546233,3.13234884 33.5616,8.12537209 33.5616,14.262814 C33.5616,20.4002558 38.5546233,25.3932791 44.6911814,25.3932791 C50.8286233,25.3932791 55.8216465,20.4002558 55.8216465,14.262814 C55.8216465,8.12537209 50.8286233,3.13234884 44.6911814,3.13234884 M44.6911814,25.6813721 C38.3955535,25.6813721 33.2743907,20.5593256 33.2743907,14.262814 C33.2743907,7.96718605 38.3955535,2.84513953 44.6911814,2.84513953 C50.987693,2.84513953 56.1088558,7.96718605 56.1088558,14.262814 C56.1088558,20.5593256 50.987693,25.6813721 44.6911814,25.6813721" id="Fill-19" fill="#E57D00"></path>
                        <path d="M21.7472233,12.6625721 C21.7472233,14.8930837 19.940014,16.700293 17.710386,16.700293 C15.4807581,16.700293 13.6726651,14.8930837 13.6726651,12.6625721 C13.6726651,10.4338279 15.4807581,8.62573488 17.710386,8.62573488 C19.940014,8.62573488 21.7472233,10.4338279 21.7472233,12.6625721" id="Fill-21" fill="#000000"></path>
                        <path d="M21.6233256,10.3652512 C21.6233256,11.6351581 20.5946744,12.6629256 19.3256512,12.6629256 C18.0566279,12.6629256 17.0279767,11.6351581 17.0279767,10.3652512 C17.0279767,9.09622791 18.0566279,8.06669302 19.3256512,8.06669302 C20.5946744,8.06669302 21.6233256,9.09622791 21.6233256,10.3652512" id="Fill-23" fill="#FFFFFF"></path>
                        <path d="M48.7287256,14.1702 C48.7287256,16.3998279 46.9215163,18.2070372 44.6910047,18.2070372 C42.4622605,18.2070372 40.6541674,16.3998279 40.6541674,14.1702 C40.6541674,11.9405721 42.4622605,10.1333628 44.6910047,10.1333628 C46.9215163,10.1333628 48.7287256,11.9405721 48.7287256,14.1702" id="Fill-25" fill="#000000"></path>
                        <path d="M48.6053581,11.8728791 C48.6053581,13.1419023 47.5758233,14.1705535 46.3068,14.1705535 C45.0377767,14.1705535 44.0100093,13.1419023 44.0100093,11.8728791 C44.0100093,10.6029721 45.0377767,9.57432093 46.3068,9.57432093 C47.5758233,9.57432093 48.6053581,10.6029721 48.6053581,11.8728791" id="Fill-27" fill="#FFFFFF"></path>
                        <path d="M0.562930233,27.9006605 C1.87525581,29.668986 12.0362791,42.8832651 30.2550698,43.7510791 C48.6444186,44.6268465 60.071814,32.1990791 61.5087442,30.5792186 C61.2347907,33.2551256 59.8155349,44.0400558 50.5700465,52.0112186 C48.7389767,53.5895442 42.7897674,58.5737302 33.6034884,59.3779163 C22.1433953,60.382707 14.0087442,54.150707 11.9487907,52.4574977 C0.85455814,43.336614 0.571767442,29.8510326 0.562930233,27.9006605" id="Fill-29" fill="#7D0000"></path>
                    </g>
                </g>
            </g>
        </g>
    </g>
</svg>