<?xml version="1.0" encoding="UTF-8"?>
<svg width="49px" height="45px" viewBox="0 0 49 45" version="1.1" xmlns="http://www.w3.org/2000/svg" xmlns:xlink="http://www.w3.org/1999/xlink">
    <!-- Generator: Sketch 52.2 (67145) - http://www.bohemiancoding.com/sketch -->
    <title>shuimianjianceqizuo</title>
    <desc>Created with Sketch.</desc>
    <g id="Page-1" stroke="none" stroke-width="1" fill="none" fill-rule="evenodd">
        <g id="记录昨晚睡眠-/笑脸" transform="translate(-31.000000, -803.000000)">
            <g id="起床" transform="translate(31.000000, 803.000000)">
                <g id="shuimianjianceqizuo">
                    <path d="M47.04,18.3744365 L17.15,18.3744365 C16.067492,18.3744365 15.19,19.2519775 15.19,20.3344365 L15.19,20.5516045 L12.370638,20.5516045 C12.136369,18.0944505 10.252858,16.1185255 7.839412,15.7436755 L7.839412,6.7834375 C7.839412,5.7009785 6.96192,4.8234375 5.879412,4.8234375 L1.96,4.8234375 C0.877541,4.8234375 0,5.7009785 0,6.7834375 L0,42.0634375 C0,43.1459455 0.877541,44.0234375 1.96,44.0234375 L5.879412,44.0234375 C6.96192,44.0234375 7.839412,43.1459455 7.839412,42.0634375 L7.839412,35.0347795 L15.453032,35.0347795 C15.792014,35.6202805 16.424751,36.0144855 17.15,36.0144855 L38.65904,36.0144855 L38.65904,42.0634375 C38.65904,43.1459455 39.536581,44.0234375 40.61904,44.0234375 L44.538452,44.0234375 C45.62096,44.0234375 46.498452,43.1459455 46.498452,42.0634375 L46.498452,36.0144855 L47.04,36.0144855 C48.122508,36.0144855 49,35.1369445 49,34.0544855 L49,20.3344855 C49,19.2519775 48.122508,18.3744365 47.04,18.3744365 Z M5.340412,40.4954375 C5.340412,41.0366425 4.901666,41.4754375 4.360412,41.4754375 L3.479,41.4754375 C2.937746,41.4754375 2.499,41.0366425 2.499,40.4954375 L2.499,8.3514375 C2.499,7.8101835 2.937746,7.3714375 3.479,7.3714375 L4.360412,7.3714375 C4.901666,7.3714375 5.340412,7.8101835 5.340412,8.3514375 L5.340412,40.4954375 Z M9.849343,20.5516535 L7.839412,20.5516535 L7.839412,18.3010835 C8.868363,18.6106165 9.655058,19.4778185 9.849343,20.5516535 Z M7.839412,23.0506535 L15.19,23.0506535 L15.19,32.5357795 L7.839412,32.5357795 L7.839412,23.0506535 Z M43.999452,40.4954375 C43.999452,41.0366425 43.560755,41.4754375 43.019452,41.4754375 L42.13804,41.4754375 C41.596835,41.4754375 41.15804,41.0366425 41.15804,40.4954375 L41.15804,36.0144855 L43.999452,36.0144855 L43.999452,40.4954375 Z M46.501,32.5354365 C46.501,33.0767395 46.062254,33.5154365 45.521,33.5154365 L18.669,33.5154365 C18.127746,33.5154365 17.689,33.0767395 17.689,32.5354365 L17.689,21.8534855 C17.689,21.3122315 18.127746,20.8734855 18.669,20.8734855 L45.521,20.8734855 C46.062254,20.8734855 46.501,21.3122315 46.501,21.8534855 L46.501,32.5354365 Z" id="形状" fill="#1C52F0" fill-rule="nonzero"></path>
                    <rect id="矩形" fill="#A9BDF9" fill-rule="nonzero" x="18.1086957" y="21.3043478" width="28.7608696" height="4.26086957"></rect>
                    <path d="M24.116232,3.7180465 C24.116232,5.74769296 25.7615855,7.3930465 27.791232,7.3930465 C29.8208785,7.3930465 31.466232,5.74769296 31.466232,3.7180465 C31.466232,1.68840004 29.8208785,0.0430465 27.791232,0.0430465 C25.7615855,0.0430465 24.116232,1.68840004 24.116232,3.7180465 Z" id="路径" fill="#1C52F0"></path>
                    <path d="M39.16031,15.7281915 L36.417388,15.7281915 C36.46727,15.3652485 36.354766,14.9839795 36.078112,14.7023275 L33.126744,11.6972555 C32.916093,11.4061955 32.594751,11.2311185 32.254397,11.1976025 C31.946285,11.1622245 31.627344,11.2437115 31.36882,11.4423575 L30.727753,11.8032915 C30.203943,11.6779005 28.853013,11.4641135 28.587335,11.1893215 C28.413973,11.0099815 28.01722,10.2605755 27.64629,9.6443025 C27.749974,9.1891415 27.873797,8.1461275 26.963622,7.7551565 C26.963622,7.7551565 25.877439,7.2948995 25.240439,8.0164735 C24.544492,8.8047855 23.931894,10.3168275 23.867998,11.8205885 C23.748536,14.6314245 24.484957,17.5158585 25.635085,18.0575045 C25.982152,18.2209195 26.465194,18.2011235 26.798688,18.2221935 C26.799423,18.2222425 26.800109,18.2221445 26.800893,18.2221935 C26.836516,18.2252805 26.872433,18.2271915 26.90884,18.2271915 L39.160261,18.2271915 C39.836804,18.2271915 40.385261,17.6787345 40.385261,17.0021915 L40.385261,16.9531915 C40.38531,16.2766485 39.836853,15.7281915 39.16031,15.7281915 Z M31.897824,14.0123585 L33.582983,15.7281425 L28.850465,15.7281425 L31.897824,14.0123585 Z M27.821759,12.1835315 C28.126931,12.4609695 28.580769,12.6152705 29.096445,12.7218455 L27.416382,13.6677905 C27.259631,12.7612415 27.281191,11.9888055 27.302359,11.5274215 C27.487285,11.8077015 27.66883,12.0445185 27.821759,12.1835315 Z" id="形状" fill="#1C52F0" fill-rule="nonzero"></path>
                </g>
            </g>
        </g>
    </g>
</svg>