<?xml version="1.0" encoding="UTF-8"?>
<svg width="53px" height="43px" viewBox="0 0 53 43" version="1.1" xmlns="http://www.w3.org/2000/svg" xmlns:xlink="http://www.w3.org/1999/xlink">
    <!-- Generator: Sketch 52.2 (67145) - http://www.bohemiancoding.com/sketch -->
    <title>分组 3</title>
    <desc>Created with Sketch.</desc>
    <g id="Page-1" stroke="none" stroke-width="1" fill="none" fill-rule="evenodd">
        <g id="记录昨晚睡眠-/笑脸" transform="translate(-30.000000, -435.000000)" fill-rule="nonzero">
            <g id="上床" transform="translate(31.000000, 436.000000)">
                <g id="分组-3">
                    <rect id="矩形" fill="#A9BDF9" x="17" y="16" width="31" height="6"></rect>
                    <path d="M48.960051,14.17329 L17.850051,14.17329 C16.723359,14.17329 15.810051,15.0911263 15.810051,16.22329 L15.810051,16.45043 L12.875613,16.45043 C12.631782,13.8804987 10.671393,11.8138425 8.159439,11.42178 L8.159439,2.05 C8.159439,0.91783625 7.246131,0 6.119439,0 L2.04,0 C0.913359,0 0,0.91783625 0,2.05 L0,38.95 C0,40.082215 0.913359,41 2.04,41 L6.119388,41 C7.24608,41 8.159388,40.082215 8.159388,38.95 L8.159388,31.5986488 L16.083768,31.5986488 C16.436586,32.211035 17.095149,32.6233413 17.85,32.6233413 L40.236909,32.6233413 L40.236909,38.95 C40.236909,40.082215 41.150319,41 42.276909,41 L46.356297,41 C47.482989,41 48.396297,40.082215 48.396297,38.95 L48.396297,32.6233413 L48.96,32.6233413 C50.086692,32.6233413 51,31.7054538 51,30.5733413 L51,16.22329 C51.000051,15.0911263 50.086743,14.17329 48.960051,14.17329 Z M5.558439,37.31 C5.558439,37.8760562 5.101785,38.335 4.538439,38.335 L3.621,38.335 C3.057654,38.335 2.601,37.8760562 2.601,37.31 L2.601,3.69 C2.601,3.1238925 3.057654,2.665 3.621,2.665 L4.538388,2.665 C5.101734,2.665 5.558388,3.1238925 5.558388,3.69 L5.558388,37.31 L5.558439,37.31 Z M10.251408,16.45043 L8.159439,16.45043 L8.159439,14.0965687 C9.230337,14.420315 10.049142,15.3273375 10.251408,16.45043 Z M8.159439,19.06418 L15.810051,19.06418 L15.810051,28.9848988 L8.159439,28.9848988 L8.159439,19.06418 Z M45.795348,37.31 C45.795348,37.8760562 45.338745,38.335 44.775348,38.335 L43.85796,38.335 C43.294665,38.335 42.83796,37.8760562 42.83796,37.31 L42.83796,32.6233412 L45.795348,32.6233412 L45.795348,37.31 Z M48.399051,28.9844888 C48.399051,29.5506475 47.942346,30.0094888 47.379051,30.0094888 L19.431051,30.0094888 C18.867705,30.0094888 18.411051,29.5506475 18.411051,28.9844888 L18.411051,17.8120912 C18.411051,17.2459837 18.867705,16.7870912 19.431051,16.7870912 L47.379051,16.7870912 C47.942346,16.7870912 48.399051,17.2459837 48.399051,17.8120912 L48.399051,28.9844888 Z" id="形状" stroke="#1C52F0" stroke-width="0.5" fill="#1C52F0"></path>
                </g>
            </g>
        </g>
    </g>
</svg>