<?xml version="1.0" encoding="UTF-8"?>
<svg width="51px" height="44px" viewBox="0 0 51 44" version="1.1" xmlns="http://www.w3.org/2000/svg" xmlns:xlink="http://www.w3.org/1999/xlink">
    <!-- Generator: Sketch 52.2 (67145) - http://www.bohemiancoding.com/sketch -->
    <title>shuimianxuanzhong</title>
    <desc>Created with Sketch.</desc>
    <g id="Page-1" stroke="none" stroke-width="1" fill="none" fill-rule="evenodd">
        <g id="记录昨晚睡眠-/笑脸" transform="translate(-30.000000, -552.000000)">
            <g id="睡着" transform="translate(31.000000, 553.000000)">
                <g id="shuimianxuanzhong">
                    <path d="M15.2954505,21.0140666 C14.7216163,21.0213022 9.67399091,20.9934732 6.94674815,16.6699585 C5.17296437,13.8495062 5.03117487,10.2990465 6.574396,7.34612778 C8.82520616,3.06046061 13.4331332,2.44210006 13.8299749,2.39590391 C13.4025213,4.67454308 13.188238,7.74296946 13.9969489,11.1408913 C14.3698576,12.7043249 14.8496298,14.6239699 16.3663107,16.6137439 C17.3436148,17.8884465 18.5597285,18.9606985 19.9467908,19.7706666 C19.0801955,20.2426466 17.4371709,20.9867942 15.2954505,21.0140666 Z" id="路径" fill="#A9BDF9"></path>
                    <path d="M21.545289,42.025524 C18.664294,42.0309632 15.8118336,41.4549055 13.1587393,40.3318506 C10.5993325,39.2494741 8.27435644,37.6805878 6.31280333,35.7122353 C4.34446182,33.7506732 2.77557709,31.4256994 1.69318808,28.8662995 C0.570426804,26.2133289 -0.00543854381,23.3610727 7.12464613e-05,20.4803063 C-0.0117074065,15.9120955 1.43988165,11.4601916 4.14214076,7.77692083 C5.44410316,5.99540659 7.01101493,4.42361465 8.78847188,3.11611863 C10.5823495,1.79459911 12.571093,0.760512584 14.6832123,0.0510317185 C15.192852,-0.120286429 15.7449144,0.153751721 15.9165939,0.66326988 C16.087912,1.17290966 15.8138739,1.72497199 15.3043557,1.89665152 C13.3834736,2.54177296 11.5748002,3.48216297 9.94337571,4.68400491 C8.3252671,5.87364597 6.89875089,7.30391617 5.71336651,8.9251457 C3.2560202,12.2756913 1.9364691,16.3252405 1.9481018,20.4803063 C1.93349007,25.6811771 4.0004406,30.6716811 7.68811293,34.3391521 C11.3555839,38.0268244 16.3460879,40.093775 21.5469587,40.0791632 C23.8022216,40.0821904 26.0409921,39.6948448 28.1641402,38.9342778 C30.2117979,38.1991464 32.1221518,37.126865 33.8162117,35.761771 C37.2292926,33.0144324 39.6279466,29.2066719 40.6320922,24.9418528 C40.6904928,24.6902864 40.8464647,24.4722366 41.0656763,24.3356991 C41.284888,24.1991615 41.5493715,24.1553277 41.8009106,24.2138459 C42.32459,24.3357325 42.6504502,24.8589026 42.5289174,25.3826642 C41.4253237,30.0723818 38.7880571,34.2596107 35.0351222,37.2806782 C33.1721698,38.7805683 31.0716445,39.9585631 28.8203482,40.7659831 C26.4861677,41.6024488 24.024818,42.0285856 21.545289,42.025524 Z" id="路径" stroke="#1C52F0" fill="#1C52F0"></path>
                    <path d="M33.8067498,27.9156605 C32.9426622,27.9156795 32.0794099,27.8619586 31.2219915,27.7548089 C27.6421772,27.3092158 24.2401713,25.9388223 21.3510425,23.7786003 C21.1443826,23.6236053 21.0077584,23.3928632 20.9712257,23.1371346 C20.9346931,22.881406 21.0012445,22.6216388 21.1562395,22.4149789 C21.3112344,22.2083189 21.5419765,22.0716948 21.7977051,22.0351621 C22.0534337,21.9986294 22.3132009,22.0651809 22.5198608,22.2201758 C27.798467,26.1785739 34.8709311,27.0735548 40.9777285,24.5578125 C41.216567,24.45934 41.4847426,24.4597859 41.7232525,24.5590519 C41.9617623,24.6583179 42.1510661,24.8482716 42.2495141,25.0871202 C42.4534621,25.5840158 42.2166655,26.1522279 41.7202064,26.3572361 C39.2094678,27.3885002 36.5210285,27.9179439 33.8067498,27.9156605 Z M15.060017,14.520446 C14.6433907,14.5202083 14.2729922,14.2551586 14.1383203,13.8608985 C13.4221917,11.7622928 13.0474874,9.56236112 13.0284995,7.34501464 C13.0074414,5.14110736 13.3362002,2.94781631 14.0025148,0.846941324 C14.0806003,0.600344649 14.2535671,0.394935189 14.4832719,0.276010793 C14.7129766,0.157086397 14.980552,0.134415125 15.2269911,0.212996549 C15.4735878,0.291082074 15.6789972,0.464048924 15.7979216,0.693753645 C15.916846,0.923458366 15.9395173,1.19103377 15.8609359,1.43747287 C14.6489295,5.28289188 14.6918138,9.41420152 15.9833835,13.2336327 C16.1569702,13.742666 15.8851347,14.2960544 15.3761546,14.4697972 C15.2742955,14.5040227 15.1674702,14.5211373 15.060017,14.520446 Z M36.2273169,21.6118337 C35.8187929,21.6141865 35.4139535,21.5345056 35.0367919,21.3775135 C34.3761313,21.0992234 34.0277121,20.6957028 33.5011873,20.0840212 C33.3831923,19.9471025 33.2496131,19.7918166 33.0965535,19.6192768 C32.76978,19.2531108 32.4224712,18.9058019 32.0563052,18.5790284 C31.0205095,17.6467567 30.39547,17.0840541 29.5939946,16.9270986 C29.2121806,16.8519602 28.0511544,16.6243189 25.9033116,18.3647451 C25.7313283,18.5044467 25.5921833,18.6291207 25.4452461,18.7615867 C25.0840837,19.099623 24.6928589,19.4040332 24.2764278,19.6710387 C23.6224461,20.0907002 22.6334032,20.7252015 21.38889,20.8259425 C19.9974396,20.9372586 18.5981971,20.3472836 17.3431089,19.1166849 L17.2841113,19.0610269 L17.2356888,18.9936807 C16.8805363,18.5356391 16.4557076,18.136165 15.9767046,17.8098347 C15.9650164,17.8020426 14.7522283,17.0306225 13.3858239,17.4948103 C11.6275872,18.0914643 11.136127,20.2710321 11.1316743,20.2905125 C11.0180128,20.8156119 10.5012284,21.1500164 9.97565733,21.0385562 C9.45060703,20.9272496 9.1150424,20.4115712 9.22594387,19.8864352 C9.25432947,19.752856 9.94949806,16.6026123 12.7596713,15.6458511 C14.5863674,15.024151 16.3217843,15.6920472 17.0598095,16.1846206 C17.705484,16.6221593 18.2789733,17.1577165 18.7596053,17.7719872 C19.3467974,18.3341332 20.2378822,18.961399 21.2336041,18.8812515 C21.9927794,18.8200277 22.705202,18.3625188 23.2256045,18.0285707 C23.5526597,17.818482 23.8593697,17.5782942 24.1417354,17.3111389 C24.2931252,17.1747767 24.4651085,17.0200474 24.6771655,16.8486208 C25.3834658,16.2764564 27.5324217,14.5349171 29.9691296,15.0119063 C31.2987996,15.2729423 32.2082516,16.0911152 33.3592593,17.1269109 C33.7796579,17.5039326 34.1782573,17.9045761 34.5531238,18.3268976 C34.7150886,18.5100125 34.8536771,18.6708642 34.9761247,18.8127921 C35.450331,19.3632499 35.5727786,19.4901502 35.790958,19.5819859 C36.0809363,19.7038769 36.3603395,19.66269 36.5646044,19.6326347 C37.4245208,19.506291 38.2087422,18.6792129 39.0391598,17.8031557 C39.8779261,16.9181933 40.7445214,16.0037321 41.8777186,15.6386155 C43.7428187,15.0380655 45.9095852,16.0115242 48.5010224,18.6163193 C48.6832651,18.799428 48.7852978,19.0474366 48.7846715,19.3057789 C48.7840452,19.5641213 48.6808113,19.8116323 48.4976829,19.9938552 C48.3145743,20.1760979 48.0665657,20.2781305 47.8082233,20.2775043 C47.549881,20.276878 47.30237,20.173644 47.1201471,19.9905157 C45.1520796,18.0118733 43.5457893,17.1486175 42.4754857,17.4931406 C41.8164948,17.7057542 41.1547209,18.4042623 40.4528734,19.1434007 C39.4788582,20.1708477 38.3751597,21.3357699 36.8479038,21.5600718 C36.6426548,21.5930494 36.435193,21.6103533 36.2273169,21.6118337 Z" id="形状" stroke="#1C52F0" fill="#1C52F0" fill-rule="nonzero"></path>
                </g>
            </g>
        </g>
    </g>
</svg>