<?xml version="1.0" encoding="UTF-8"?>
<svg width="49px" height="40px" viewBox="0 0 49 40" version="1.1" xmlns="http://www.w3.org/2000/svg" xmlns:xlink="http://www.w3.org/1999/xlink">
    <!-- Generator: Sketch 52.2 (67145) - http://www.bohemiancoding.com/sketch -->
    <title>shuimianjianceqitang</title>
    <desc>Created with Sketch.</desc>
    <g id="Page-1" stroke="none" stroke-width="1" fill="none" fill-rule="evenodd">
        <g id="记录昨晚睡眠-/笑脸" transform="translate(-31.000000, -681.000000)" fill-rule="nonzero">
            <g id="睡醒" transform="translate(31.000000, 681.000000)">
                <g id="shuimianjianceqitang">
                    <rect id="矩形" fill="#A9BDF9" x="18.1086957" y="13.8478261" width="22.3695652" height="4.26086957"></rect>
                    <path d="M47.0216322,13.5648409 L44.8444816,13.5648409 L43.2670528,13.5648409 L41.8707552,12.4733512 L40.6800304,11.5426168 L40.6666586,11.5321349 L40.6663647,11.5321349 C40.3334417,11.270822 39.9142635,11.1143771 39.4581537,11.1143771 L17.1433034,11.1143771 C16.5252628,11.1143771 15.974424,11.4008172 15.6153453,11.8478656 C15.9013935,11.3250438 16.0642549,10.7251751 16.0642549,10.0871993 C16.0642549,8.05836283 14.4195754,6.4136343 12.3906899,6.4136343 C10.3618044,6.4136343 8.71712487,8.05836283 8.71712487,10.0871993 C8.71712487,10.479732 8.77933057,10.8576194 8.89335803,11.2122898 C8.5557819,11.0857722 8.202238,10.9919739 7.83639991,10.9351561 L7.83639991,1.97836783 C7.83639991,0.896331496 6.95925054,0.0191331511 5.87716523,0.0191331511 L1.95923467,0.0191331511 C0.877198344,0.0191331511 0,0.896331496 0,1.97836783 L0,37.244592 C0,38.3266773 0.877198344,39.2038266 1.95923467,39.2038266 L5.87711625,39.2038266 C6.95920156,39.2038266 7.83635093,38.3266773 7.83635093,37.244592 L7.83635093,30.2186785 L15.446998,30.2186785 C15.7858477,30.8039508 16.4183376,31.1980019 17.1433034,31.1980019 L38.6439447,31.1980019 L38.6439447,37.244592 C38.6439447,38.3266773 39.5211431,39.2038266 40.6031794,39.2038266 L44.521061,39.2038266 C45.6031463,39.2038266 46.4802956,38.3266773 46.4802956,37.244592 L46.4802956,31.1980019 L47.0216322,31.1980019 C48.1037175,31.1980019 48.9808668,30.3208036 48.9808668,29.2387672 L48.9808668,15.5241245 C48.9808668,14.4420392 48.1037175,13.5648409 47.0216322,13.5648409 Z M5.33832672,35.6772042 C5.33832672,36.2181979 4.89975203,36.6568216 4.35870938,36.6568216 L3.47764155,36.6568216 C2.93659889,36.6568216 2.49802421,36.2181979 2.49802421,35.6772042 L2.49802421,3.54575556 C2.49802421,3.00471291 2.93659889,2.56613823 3.47764155,2.56613823 L4.35870938,2.56613823 C4.89975203,2.56613823 5.33832672,3.00471291 5.33832672,3.54575556 L5.33832672,35.6772042 Z M15.3763676,12.2262427 C15.2531317,12.4827066 15.1840687,12.7701263 15.1840687,13.0736117 L15.1840687,15.7411587 L12.3658076,15.7411587 C12.2960589,15.0093846 12.0801022,14.3202238 11.7471793,13.7034567 C11.9562296,13.7403883 12.1710107,13.7607643 12.3906899,13.7607643 C13.6212852,13.7607643 14.709689,13.1551159 15.3763676,12.2262427 Z M9.8454971,15.7411587 L7.83635093,15.7411587 L7.83635093,13.4915165 C8.86490015,13.8009286 9.65128797,14.667792 9.8454971,15.7411587 Z M7.83635093,18.2391829 L15.1840687,18.2391829 L15.1840687,27.7206542 L7.83635093,27.7206542 L7.83635093,18.2391829 Z M43.9822714,35.6772042 C43.9822714,36.2181979 43.5437457,36.6568216 43.0026541,36.6568216 L42.1215863,36.6568216 C41.5805926,36.6568216 41.1419689,36.2181979 41.1419689,35.6772042 L41.1419689,31.1980019 L43.9822714,31.1980019 L43.9822714,35.6772042 Z M46.4828426,27.7203114 C46.4828426,28.261403 46.044268,28.6999287 45.5032253,28.6999287 L18.6617103,28.6999287 C18.1206676,28.6999287 17.6820929,28.261403 17.6820929,27.7203114 L17.6820929,14.5920676 C17.6820929,14.0510249 18.1206676,13.6124503 18.6617103,13.6124503 L37.5745454,13.6124503 L39.1519743,13.6124503 L40.5467044,14.7027154 L41.7489398,15.6425113 L41.7508501,15.6425113 C42.0840179,15.904363 42.503735,16.0610038 42.9603346,16.0610038 L42.9603346,16.062963 L45.5032253,16.062963 C46.044268,16.062963 46.4828426,16.5015377 46.4828426,17.0425804 L46.4828426,27.7203114 Z" id="形状" fill="#2559F0"></path>
                </g>
            </g>
        </g>
    </g>
</svg>